Coordinates
version=1
nRows=9
nColumns=24
inDegrees=yes

Units are S.I. units (second, meters, Newtons, ...)
Angles are in degrees.

endheader
time	pelvis_tilt	pelvis_list	pelvis_rotation	pelvis_tx	pelvis_ty	pelvis_tz	hip_flexion_r	hip_adduction_r	hip_rotation_r	knee_angle_r	ankle_angle_r	subtalar_angle_r	mtp_angle_r	hip_flexion_l	hip_adduction_l	hip_rotation_l	knee_angle_l	ankle_angle_l	subtalar_angle_l	mtp_angle_l	lumbar_extension	lumbar_bending	lumbar_rotation
      4.00000000	     57.56654768	      4.36720896	     -3.79635765	      0.77991642	      1.02791120	     -0.28188100	      8.04894964	     -9.15513409	      2.09128870	    -63.52502894	      5.67699332	     -6.91515300	   -104.13458843	      4.71424515	     -3.40621086	    -15.76845747	    -64.57155115	     18.82887507	     -0.80648705	   4381.20817024	      0.00000000	      0.00000000	      0.00000000
      4.01000000	     57.54287676	      4.33627349	     -3.74732820	      0.77969815	      1.02788180	     -0.28168056	      8.26421187	     -8.98408066	      1.96827693	    -63.09241208	      9.23198036	     -9.38677722	    -86.15466116	      4.82187367	     -3.51562315	    -15.82469495	    -64.70477285	     18.15882631	     -1.20981683	   4933.43284291	      0.00000000	      0.00000000	      0.00000000
      4.02000000	     57.51966345	      4.30755783	     -3.71400806	      0.77935008	      1.02803434	     -0.28129996	      8.47937824	     -8.78937390	      1.71930440	    -62.91542124	     13.11837769	    -11.38299548	    -68.02129744	      4.93293728	     -3.63700314	    -15.96633988	    -64.82920854	     17.59911497	     -2.03856961	   5518.68535116	      0.00000000	      0.00000000	      0.00000000
      4.03000000	     57.51127903	      4.31315447	     -3.72736069	      0.77922695	      1.02827750	     -0.28095991	      8.65556126	     -8.59789471	      1.40312372	    -62.85787630	     16.85659245	    -12.74068188	    -51.15196527	      5.06150027	     -3.78859636	    -16.16263649	    -64.92852781	     17.10463995	     -3.15843114	   6137.25423859	      0.00000000	      0.00000000	      0.00000000
      4.04000000	     57.51906756	      4.35830284	     -3.78888164	      0.77948994	      1.02830972	     -0.28077828	      8.76487216	     -8.43601547	      1.11857171	    -62.71456384	     19.91762680	    -13.36350795	    -37.01619897	      5.20582554	     -3.95488015	    -16.37387064	    -65.00259864	     16.60413044	     -4.35473363	   6789.37380325	      0.00000000	      0.00000000	      0.00000000
      4.05000000	     57.52901164	      4.41610571	     -3.86630908	      0.77979916	      1.02828525	     -0.28074436	      8.79390599	     -8.32731504	      0.97671900	    -62.27138083	     21.82558734	    -13.20789713	    -27.03296839	      5.34774182	     -4.08598663	    -16.56582947	    -65.07795969	     16.03730404	     -5.39068211	   7475.22287895	      0.00000000	      0.00000000	      0.00000000
      4.06000000	     57.52649486	      4.45227804	     -3.91498364	      0.77972330	      1.02861584	     -0.28084594	      8.74469688	     -8.29946760	      1.06384732	    -61.37711086	     22.26391196	    -12.26527861	    -22.46924496	      5.46598011	     -4.14231274	    -16.70715263	    -65.19116988	     15.38052174	     -6.07494873	   8194.92531973	      0.00000000	      0.00000000	      0.00000000
      4.07000000	     57.50738869	      4.45033712	     -3.90378849	      0.77924560	      1.02912705	     -0.28100873	      8.63404580	     -8.38003380	      1.40346250	    -60.00762834	     21.16366112	    -10.55591596	    -24.34649036	      5.54541825	     -4.12964481	    -16.76700177	    -65.36278187	     14.65767939	     -6.31313462	   8948.54992547	      0.00000000	      0.00000000	      0.00000000
      4.08000000	     57.48602372	      4.42756710	     -3.83354969	      0.77879791	      1.02921826	     -0.28116615	      8.48647883	     -8.57188660	      1.93029928	    -58.30196579	     18.75011631	     -8.14564652	    -33.36002719	      5.58998496	     -4.09564448	    -16.72521757	    -65.58158121	     13.94394610	     -6.12751429	   9736.10733149	      0.00000000	      0.00000000	      0.00000000
